<mxfile host="Electron" agent="Mozilla/5.0 (Macintosh; Intel Mac OS X 10_15_7) AppleWebKit/537.36 (KHTML, like Gecko) draw.io/24.7.8 Chrome/128.0.6613.36 Electron/32.0.1 Safari/537.36" version="24.7.8">
  <diagram id="C5RBs43oDa-KdzZeNtuy" name="Page-1">
    <mxGraphModel dx="858" dy="614" grid="0" gridSize="10" guides="1" tooltips="1" connect="1" arrows="1" fold="1" page="1" pageScale="1" pageWidth="827" pageHeight="1169" math="0" shadow="0">
      <root>
        <mxCell id="WIyWlLk6GJQsqaUBKTNV-0" />
        <mxCell id="WIyWlLk6GJQsqaUBKTNV-1" parent="WIyWlLk6GJQsqaUBKTNV-0" />
        <mxCell id="MqOoJ6W0MACwqHCy17Mz-0" value="" style="group" parent="WIyWlLk6GJQsqaUBKTNV-1" vertex="1" connectable="0">
          <mxGeometry x="70" y="40" width="510" height="710" as="geometry" />
        </mxCell>
        <mxCell id="SmCBCGZn6qPvJCd9lhhN-11" style="edgeStyle=orthogonalEdgeStyle;rounded=0;orthogonalLoop=1;jettySize=auto;html=1;exitX=0.5;exitY=1;exitDx=0;exitDy=0;entryX=0.5;entryY=0;entryDx=0;entryDy=0;fontColor=#000000;strokeColor=#000000;" parent="MqOoJ6W0MACwqHCy17Mz-0" edge="1">
          <mxGeometry relative="1" as="geometry">
            <mxPoint x="160" y="357" as="sourcePoint" />
            <mxPoint x="150" y="400" as="targetPoint" />
          </mxGeometry>
        </mxCell>
        <mxCell id="SmCBCGZn6qPvJCd9lhhN-10" style="edgeStyle=orthogonalEdgeStyle;rounded=0;orthogonalLoop=1;jettySize=auto;html=1;exitX=0.5;exitY=1;exitDx=0;exitDy=0;entryX=0.5;entryY=0;entryDx=0;entryDy=0;fontColor=#000000;strokeColor=#000000;" parent="MqOoJ6W0MACwqHCy17Mz-0" edge="1">
          <mxGeometry relative="1" as="geometry">
            <mxPoint x="160" y="317" as="targetPoint" />
            <mxPoint x="150" y="280" as="sourcePoint" />
          </mxGeometry>
        </mxCell>
        <mxCell id="SmCBCGZn6qPvJCd9lhhN-12" style="edgeStyle=orthogonalEdgeStyle;rounded=0;orthogonalLoop=1;jettySize=auto;html=1;exitX=0.5;exitY=1;exitDx=0;exitDy=0;entryX=0.5;entryY=0;entryDx=0;entryDy=0;fontColor=#000000;strokeColor=#000000;" parent="MqOoJ6W0MACwqHCy17Mz-0" edge="1">
          <mxGeometry relative="1" as="geometry">
            <mxPoint x="149.9999999999999" y="512" as="sourcePoint" />
            <mxPoint x="149.9999999999999" y="552" as="targetPoint" />
          </mxGeometry>
        </mxCell>
        <mxCell id="SmCBCGZn6qPvJCd9lhhN-14" style="edgeStyle=orthogonalEdgeStyle;rounded=0;orthogonalLoop=1;jettySize=auto;html=1;exitX=0.5;exitY=1;exitDx=0;exitDy=0;entryX=0.5;entryY=0;entryDx=0;entryDy=0;fontColor=#000000;strokeColor=#000000;" parent="MqOoJ6W0MACwqHCy17Mz-0" source="SmCBCGZn6qPvJCd9lhhN-6" target="SmCBCGZn6qPvJCd9lhhN-8" edge="1">
          <mxGeometry relative="1" as="geometry" />
        </mxCell>
        <mxCell id="SmCBCGZn6qPvJCd9lhhN-6" value="Generate manufacturing files" style="rounded=1;whiteSpace=wrap;html=1;fontSize=12;glass=0;strokeWidth=1;shadow=0;fontColor=#000000;strokeColor=#000000;" parent="MqOoJ6W0MACwqHCy17Mz-0" vertex="1">
          <mxGeometry x="90" y="560" width="120" height="40" as="geometry" />
        </mxCell>
        <mxCell id="SmCBCGZn6qPvJCd9lhhN-13" style="edgeStyle=orthogonalEdgeStyle;rounded=0;orthogonalLoop=1;jettySize=auto;html=1;exitX=0.5;exitY=1;exitDx=0;exitDy=0;entryX=0.5;entryY=0;entryDx=0;entryDy=0;fontColor=#000000;strokeColor=#000000;" parent="MqOoJ6W0MACwqHCy17Mz-0" source="SmCBCGZn6qPvJCd9lhhN-7" target="SmCBCGZn6qPvJCd9lhhN-6" edge="1">
          <mxGeometry relative="1" as="geometry" />
        </mxCell>
        <mxCell id="SmCBCGZn6qPvJCd9lhhN-7" value="x2" style="rounded=0;whiteSpace=wrap;html=1;fontSize=12;glass=0;strokeWidth=1;shadow=0;fontColor=#ffffff;strokeColor=#006EAF;align=right;verticalAlign=bottom;fillColor=none;dashed=1;" parent="MqOoJ6W0MACwqHCy17Mz-0" vertex="1">
          <mxGeometry y="472" width="180" height="120" as="geometry" />
        </mxCell>
        <mxCell id="SmCBCGZn6qPvJCd9lhhN-8" value="Order boards" style="rounded=1;whiteSpace=wrap;html=1;fontSize=12;glass=0;strokeWidth=1;shadow=0;fontColor=#000000;strokeColor=#000000;" parent="MqOoJ6W0MACwqHCy17Mz-0" vertex="1">
          <mxGeometry x="90" y="640" width="120" height="40" as="geometry" />
        </mxCell>
        <mxCell id="HgqJ0vUBqRTQ7riuux3N-29" style="edgeStyle=orthogonalEdgeStyle;rounded=0;orthogonalLoop=1;jettySize=auto;html=1;exitX=0.994;exitY=0.834;exitDx=0;exitDy=0;exitPerimeter=0;" parent="MqOoJ6W0MACwqHCy17Mz-0" source="HgqJ0vUBqRTQ7riuux3N-0" target="HgqJ0vUBqRTQ7riuux3N-28" edge="1">
          <mxGeometry relative="1" as="geometry" />
        </mxCell>
        <mxCell id="HgqJ0vUBqRTQ7riuux3N-30" value="SPI" style="edgeLabel;html=1;align=center;verticalAlign=middle;resizable=0;points=[];" parent="HgqJ0vUBqRTQ7riuux3N-29" vertex="1" connectable="0">
          <mxGeometry x="0.051" y="-1" relative="1" as="geometry">
            <mxPoint as="offset" />
          </mxGeometry>
        </mxCell>
        <mxCell id="HgqJ0vUBqRTQ7riuux3N-32" style="edgeStyle=orthogonalEdgeStyle;rounded=0;orthogonalLoop=1;jettySize=auto;html=1;exitX=1;exitY=0.33;exitDx=0;exitDy=0;entryX=0;entryY=0.5;entryDx=0;entryDy=0;exitPerimeter=0;" parent="MqOoJ6W0MACwqHCy17Mz-0" source="HgqJ0vUBqRTQ7riuux3N-0" target="HgqJ0vUBqRTQ7riuux3N-31" edge="1">
          <mxGeometry relative="1" as="geometry" />
        </mxCell>
        <mxCell id="HgqJ0vUBqRTQ7riuux3N-33" value="SPI" style="edgeLabel;html=1;align=center;verticalAlign=middle;resizable=0;points=[];" parent="HgqJ0vUBqRTQ7riuux3N-32" vertex="1" connectable="0">
          <mxGeometry x="0.0802" y="-1" relative="1" as="geometry">
            <mxPoint as="offset" />
          </mxGeometry>
        </mxCell>
        <mxCell id="HgqJ0vUBqRTQ7riuux3N-0" value="M4 Feather&lt;div&gt;CAN Express&lt;/div&gt;&lt;div&gt;&lt;br&gt;&lt;/div&gt;&lt;div&gt;Single-Board&lt;/div&gt;&lt;div&gt;Computer&lt;/div&gt;&lt;div&gt;Socket&lt;/div&gt;" style="whiteSpace=wrap;html=1;" parent="MqOoJ6W0MACwqHCy17Mz-0" vertex="1">
          <mxGeometry x="230" y="240" width="120" height="360" as="geometry" />
        </mxCell>
        <mxCell id="HgqJ0vUBqRTQ7riuux3N-1" value="&lt;span style=&quot;color: rgba(0, 0, 0, 0); font-family: monospace; font-size: 0px; text-align: start; background-color: rgb(27, 29, 30);&quot;&gt;%3CmxGraphModel%3E%3Croot%3E%3CmxCell%20id%3D%220%22%2F%3E%3CmxCell%20id%3D%221%22%20parent%3D%220%22%2F%3E%3CmxCell%20id%3D%222%22%20value%3D%22Ethernet%26lt%3Bdiv%26gt%3BFeatherWing%26lt%3B%2Fdiv%26gt%3B%26lt%3Bdiv%26gt%3BSocket%26lt%3B%2Fdiv%26gt%3B%26lt%3Bdiv%26gt%3B(Optional)%26lt%3B%2Fdiv%26gt%3B%22%20style%3D%22whiteSpace%3Dwrap%3Bhtml%3D1%3B%22%20vertex%3D%221%22%20parent%3D%221%22%3E%3CmxGeometry%20x%3D%22520%22%20y%3D%22530%22%20width%3D%22120%22%20height%3D%22102%22%20as%3D%22geometry%22%2F%3E%3C%2FmxCell%3E%3C%2Froot%3E%3C%2FmxGraphModel%3E&lt;/span&gt;" style="endArrow=classic;html=1;rounded=0;startArrow=classic;startFill=1;" parent="MqOoJ6W0MACwqHCy17Mz-0" edge="1">
          <mxGeometry relative="1" as="geometry">
            <mxPoint x="350" y="420.5" as="sourcePoint" />
            <mxPoint x="450" y="420.5" as="targetPoint" />
          </mxGeometry>
        </mxCell>
        <mxCell id="HgqJ0vUBqRTQ7riuux3N-2" value="CAN" style="edgeLabel;resizable=0;html=1;;align=center;verticalAlign=middle;" parent="HgqJ0vUBqRTQ7riuux3N-1" connectable="0" vertex="1">
          <mxGeometry relative="1" as="geometry">
            <mxPoint y="11" as="offset" />
          </mxGeometry>
        </mxCell>
        <mxCell id="HgqJ0vUBqRTQ7riuux3N-4" value="Level&lt;div&gt;Shifter&lt;/div&gt;" style="rounded=0;whiteSpace=wrap;html=1;" parent="MqOoJ6W0MACwqHCy17Mz-0" vertex="1">
          <mxGeometry x="108" y="240" width="45" height="40" as="geometry" />
        </mxCell>
        <mxCell id="HgqJ0vUBqRTQ7riuux3N-5" value="Voltage&lt;div&gt;Select&lt;/div&gt;" style="rounded=0;whiteSpace=wrap;html=1;" parent="MqOoJ6W0MACwqHCy17Mz-0" vertex="1">
          <mxGeometry x="108" y="142" width="45" height="40" as="geometry" />
        </mxCell>
        <mxCell id="HgqJ0vUBqRTQ7riuux3N-20" value="" style="edgeStyle=orthogonalEdgeStyle;rounded=0;orthogonalLoop=1;jettySize=auto;html=1;endArrow=none;endFill=0;" parent="MqOoJ6W0MACwqHCy17Mz-0" source="HgqJ0vUBqRTQ7riuux3N-6" target="HgqJ0vUBqRTQ7riuux3N-4" edge="1">
          <mxGeometry relative="1" as="geometry" />
        </mxCell>
        <mxCell id="HgqJ0vUBqRTQ7riuux3N-6" value="4x3&lt;div&gt;Headers&lt;/div&gt;" style="rounded=0;whiteSpace=wrap;html=1;" parent="MqOoJ6W0MACwqHCy17Mz-0" vertex="1">
          <mxGeometry x="10" y="240" width="50" height="40" as="geometry" />
        </mxCell>
        <mxCell id="HgqJ0vUBqRTQ7riuux3N-7" value="Logic LEDs" style="rounded=0;whiteSpace=wrap;html=1;" parent="MqOoJ6W0MACwqHCy17Mz-0" vertex="1">
          <mxGeometry x="10" y="290" width="50" height="40" as="geometry" />
        </mxCell>
        <mxCell id="HgqJ0vUBqRTQ7riuux3N-8" value="Buffer" style="rounded=0;whiteSpace=wrap;html=1;" parent="MqOoJ6W0MACwqHCy17Mz-0" vertex="1">
          <mxGeometry x="105" y="357" width="45" height="40" as="geometry" />
        </mxCell>
        <mxCell id="HgqJ0vUBqRTQ7riuux3N-9" value="4x3&lt;div&gt;Headers&lt;/div&gt;" style="rounded=0;whiteSpace=wrap;html=1;" parent="MqOoJ6W0MACwqHCy17Mz-0" vertex="1">
          <mxGeometry x="10" y="357" width="50" height="40" as="geometry" />
        </mxCell>
        <mxCell id="HgqJ0vUBqRTQ7riuux3N-10" value="Level&lt;div&gt;Shifter&lt;/div&gt;" style="rounded=0;whiteSpace=wrap;html=1;" parent="MqOoJ6W0MACwqHCy17Mz-0" vertex="1">
          <mxGeometry x="105" y="542" width="45" height="40" as="geometry" />
        </mxCell>
        <mxCell id="HgqJ0vUBqRTQ7riuux3N-11" value="Voltage&lt;div&gt;Select&lt;/div&gt;" style="whiteSpace=wrap;html=1;rounded=0;" parent="MqOoJ6W0MACwqHCy17Mz-0" vertex="1">
          <mxGeometry x="105" y="482" width="45" height="40" as="geometry" />
        </mxCell>
        <mxCell id="HgqJ0vUBqRTQ7riuux3N-12" value="Qwiic Conn" style="rounded=0;whiteSpace=wrap;html=1;" parent="MqOoJ6W0MACwqHCy17Mz-0" vertex="1">
          <mxGeometry x="10" y="542" width="50" height="40" as="geometry" />
        </mxCell>
        <mxCell id="HgqJ0vUBqRTQ7riuux3N-14" value="Qwiic Conn" style="rounded=0;whiteSpace=wrap;html=1;" parent="MqOoJ6W0MACwqHCy17Mz-0" vertex="1">
          <mxGeometry x="10" y="422" width="50" height="40" as="geometry" />
        </mxCell>
        <mxCell id="HgqJ0vUBqRTQ7riuux3N-15" value="" style="endArrow=none;html=1;rounded=0;exitX=0.5;exitY=0;exitDx=0;exitDy=0;entryX=0.5;entryY=1;entryDx=0;entryDy=0;" parent="MqOoJ6W0MACwqHCy17Mz-0" source="HgqJ0vUBqRTQ7riuux3N-4" target="HgqJ0vUBqRTQ7riuux3N-5" edge="1">
          <mxGeometry width="50" height="50" relative="1" as="geometry">
            <mxPoint x="83" y="270" as="sourcePoint" />
            <mxPoint x="133" y="220" as="targetPoint" />
          </mxGeometry>
        </mxCell>
        <mxCell id="HgqJ0vUBqRTQ7riuux3N-16" value="" style="endArrow=none;html=1;rounded=0;exitX=0.5;exitY=0;exitDx=0;exitDy=0;entryX=0.5;entryY=1;entryDx=0;entryDy=0;" parent="MqOoJ6W0MACwqHCy17Mz-0" edge="1">
          <mxGeometry width="50" height="50" relative="1" as="geometry">
            <mxPoint x="129.83" y="542" as="sourcePoint" />
            <mxPoint x="129.83" y="522" as="targetPoint" />
          </mxGeometry>
        </mxCell>
        <mxCell id="HgqJ0vUBqRTQ7riuux3N-17" value="" style="endArrow=none;html=1;rounded=0;entryX=0;entryY=0.056;entryDx=0;entryDy=0;entryPerimeter=0;exitX=1;exitY=0.5;exitDx=0;exitDy=0;" parent="MqOoJ6W0MACwqHCy17Mz-0" source="HgqJ0vUBqRTQ7riuux3N-4" target="HgqJ0vUBqRTQ7riuux3N-0" edge="1">
          <mxGeometry width="50" height="50" relative="1" as="geometry">
            <mxPoint x="160" y="260" as="sourcePoint" />
            <mxPoint x="220" y="260" as="targetPoint" />
          </mxGeometry>
        </mxCell>
        <mxCell id="HgqJ0vUBqRTQ7riuux3N-18" value="" style="endArrow=none;html=1;rounded=0;" parent="MqOoJ6W0MACwqHCy17Mz-0" edge="1">
          <mxGeometry width="50" height="50" relative="1" as="geometry">
            <mxPoint x="60" y="309.83" as="sourcePoint" />
            <mxPoint x="190" y="260" as="targetPoint" />
            <Array as="points">
              <mxPoint x="190" y="310" />
            </Array>
          </mxGeometry>
        </mxCell>
        <mxCell id="HgqJ0vUBqRTQ7riuux3N-21" value="" style="endArrow=none;html=1;rounded=0;exitX=1;exitY=0.5;exitDx=0;exitDy=0;entryX=0;entryY=0.378;entryDx=0;entryDy=0;entryPerimeter=0;" parent="MqOoJ6W0MACwqHCy17Mz-0" source="HgqJ0vUBqRTQ7riuux3N-8" target="HgqJ0vUBqRTQ7riuux3N-0" edge="1">
          <mxGeometry width="50" height="50" relative="1" as="geometry">
            <mxPoint x="160" y="377" as="sourcePoint" />
            <mxPoint x="220" y="377" as="targetPoint" />
          </mxGeometry>
        </mxCell>
        <mxCell id="HgqJ0vUBqRTQ7riuux3N-22" value="" style="endArrow=none;html=1;rounded=0;entryX=0;entryY=0.5;entryDx=0;entryDy=0;" parent="MqOoJ6W0MACwqHCy17Mz-0" target="HgqJ0vUBqRTQ7riuux3N-8" edge="1">
          <mxGeometry width="50" height="50" relative="1" as="geometry">
            <mxPoint x="60" y="376.44" as="sourcePoint" />
            <mxPoint x="100" y="376.73" as="targetPoint" />
          </mxGeometry>
        </mxCell>
        <mxCell id="HgqJ0vUBqRTQ7riuux3N-23" value="" style="endArrow=none;html=1;rounded=0;entryX=-0.008;entryY=0.558;entryDx=0;entryDy=0;entryPerimeter=0;" parent="MqOoJ6W0MACwqHCy17Mz-0" target="HgqJ0vUBqRTQ7riuux3N-0" edge="1">
          <mxGeometry width="50" height="50" relative="1" as="geometry">
            <mxPoint x="60" y="441.58000000000004" as="sourcePoint" />
            <mxPoint x="210" y="442" as="targetPoint" />
          </mxGeometry>
        </mxCell>
        <mxCell id="HgqJ0vUBqRTQ7riuux3N-26" value="" style="endArrow=none;html=1;rounded=0;exitX=1;exitY=0.5;exitDx=0;exitDy=0;entryX=0;entryY=0.892;entryDx=0;entryDy=0;entryPerimeter=0;" parent="MqOoJ6W0MACwqHCy17Mz-0" source="HgqJ0vUBqRTQ7riuux3N-10" target="HgqJ0vUBqRTQ7riuux3N-0" edge="1">
          <mxGeometry width="50" height="50" relative="1" as="geometry">
            <mxPoint x="160" y="562" as="sourcePoint" />
            <mxPoint x="220" y="562" as="targetPoint" />
          </mxGeometry>
        </mxCell>
        <mxCell id="HgqJ0vUBqRTQ7riuux3N-27" value="" style="endArrow=none;html=1;rounded=0;entryX=0;entryY=0.5;entryDx=0;entryDy=0;" parent="MqOoJ6W0MACwqHCy17Mz-0" target="HgqJ0vUBqRTQ7riuux3N-10" edge="1">
          <mxGeometry width="50" height="50" relative="1" as="geometry">
            <mxPoint x="60" y="561.27" as="sourcePoint" />
            <mxPoint x="100" y="561.5600000000001" as="targetPoint" />
          </mxGeometry>
        </mxCell>
        <mxCell id="HgqJ0vUBqRTQ7riuux3N-28" value="Ethernet&lt;div&gt;FeatherWing&lt;/div&gt;&lt;div&gt;Socket&lt;/div&gt;&lt;div&gt;(Optional)&lt;/div&gt;" style="whiteSpace=wrap;html=1;" parent="MqOoJ6W0MACwqHCy17Mz-0" vertex="1">
          <mxGeometry x="430" y="490" width="80" height="102" as="geometry" />
        </mxCell>
        <mxCell id="HgqJ0vUBqRTQ7riuux3N-31" value="MicroSD&lt;div&gt;Socket&lt;/div&gt;" style="whiteSpace=wrap;html=1;" parent="MqOoJ6W0MACwqHCy17Mz-0" vertex="1">
          <mxGeometry x="430" y="329" width="80" height="60" as="geometry" />
        </mxCell>
        <mxCell id="HgqJ0vUBqRTQ7riuux3N-34" value="Neopixel" style="whiteSpace=wrap;html=1;" parent="MqOoJ6W0MACwqHCy17Mz-0" vertex="1">
          <mxGeometry x="430" y="250" width="80" height="60" as="geometry" />
        </mxCell>
        <mxCell id="HgqJ0vUBqRTQ7riuux3N-35" value="" style="endArrow=classic;html=1;rounded=0;entryX=0;entryY=0.5;entryDx=0;entryDy=0;exitX=1;exitY=0.109;exitDx=0;exitDy=0;exitPerimeter=0;endFill=1;" parent="MqOoJ6W0MACwqHCy17Mz-0" source="HgqJ0vUBqRTQ7riuux3N-0" target="HgqJ0vUBqRTQ7riuux3N-34" edge="1">
          <mxGeometry width="50" height="50" relative="1" as="geometry">
            <mxPoint x="370" y="280" as="sourcePoint" />
            <mxPoint x="420" y="230" as="targetPoint" />
          </mxGeometry>
        </mxCell>
        <mxCell id="HgqJ0vUBqRTQ7riuux3N-38" style="edgeStyle=orthogonalEdgeStyle;rounded=0;orthogonalLoop=1;jettySize=auto;html=1;endArrow=none;endFill=0;" parent="MqOoJ6W0MACwqHCy17Mz-0" source="HgqJ0vUBqRTQ7riuux3N-36" target="HgqJ0vUBqRTQ7riuux3N-37" edge="1">
          <mxGeometry relative="1" as="geometry" />
        </mxCell>
        <mxCell id="HgqJ0vUBqRTQ7riuux3N-36" value="Wago&lt;div&gt;2601&lt;/div&gt;" style="rounded=0;whiteSpace=wrap;html=1;" parent="MqOoJ6W0MACwqHCy17Mz-0" vertex="1">
          <mxGeometry x="10" y="660" width="50" height="40" as="geometry" />
        </mxCell>
        <mxCell id="HgqJ0vUBqRTQ7riuux3N-37" value="Power Supply&lt;div&gt;12V to 5V&lt;/div&gt;" style="whiteSpace=wrap;html=1;" parent="MqOoJ6W0MACwqHCy17Mz-0" vertex="1">
          <mxGeometry x="230" y="650" width="120" height="60" as="geometry" />
        </mxCell>
        <mxCell id="HgqJ0vUBqRTQ7riuux3N-39" value="&lt;span style=&quot;color: rgba(0, 0, 0, 0); font-family: monospace; font-size: 0px; text-align: start; background-color: rgb(27, 29, 30);&quot;&gt;%3CmxGraphModel%3E%3Croot%3E%3CmxCell%20id%3D%220%22%2F%3E%3CmxCell%20id%3D%221%22%20parent%3D%220%22%2F%3E%3CmxCell%20id%3D%222%22%20value%3D%22Ethernet%26lt%3Bdiv%26gt%3BFeatherWing%26lt%3B%2Fdiv%26gt%3B%26lt%3Bdiv%26gt%3BSocket%26lt%3B%2Fdiv%26gt%3B%26lt%3Bdiv%26gt%3B(Optional)%26lt%3B%2Fdiv%26gt%3B%22%20style%3D%22whiteSpace%3Dwrap%3Bhtml%3D1%3B%22%20vertex%3D%221%22%20parent%3D%221%22%3E%3CmxGeometry%20x%3D%22520%22%20y%3D%22530%22%20width%3D%22120%22%20height%3D%22102%22%20as%3D%22geometry%22%2F%3E%3C%2FmxCell%3E%3C%2Froot%3E%3C%2FmxGraphModel%3E&lt;/span&gt;" style="endArrow=classic;html=1;rounded=0;startArrow=classic;startFill=1;" parent="MqOoJ6W0MACwqHCy17Mz-0" edge="1">
          <mxGeometry relative="1" as="geometry">
            <mxPoint x="350" y="450" as="sourcePoint" />
            <mxPoint x="450" y="450" as="targetPoint" />
          </mxGeometry>
        </mxCell>
        <mxCell id="HgqJ0vUBqRTQ7riuux3N-40" value="USB" style="edgeLabel;resizable=0;html=1;;align=center;verticalAlign=middle;" parent="HgqJ0vUBqRTQ7riuux3N-39" connectable="0" vertex="1">
          <mxGeometry relative="1" as="geometry">
            <mxPoint y="11" as="offset" />
          </mxGeometry>
        </mxCell>
        <mxCell id="HgqJ0vUBqRTQ7riuux3N-41" value="4x2&lt;div&gt;Headers&lt;/div&gt;" style="rounded=0;whiteSpace=wrap;html=1;" parent="MqOoJ6W0MACwqHCy17Mz-0" vertex="1">
          <mxGeometry x="10" y="190" width="50" height="40" as="geometry" />
        </mxCell>
        <mxCell id="HgqJ0vUBqRTQ7riuux3N-43" value="" style="endArrow=none;html=1;rounded=0;exitX=1;exitY=0.5;exitDx=0;exitDy=0;" parent="MqOoJ6W0MACwqHCy17Mz-0" source="HgqJ0vUBqRTQ7riuux3N-41" edge="1">
          <mxGeometry width="50" height="50" relative="1" as="geometry">
            <mxPoint x="170" y="290" as="sourcePoint" />
            <mxPoint x="130" y="210" as="targetPoint" />
          </mxGeometry>
        </mxCell>
      </root>
    </mxGraphModel>
  </diagram>
</mxfile>
